<svg width="22" height="22" viewBox="0 0 22 22" fill="none" xmlns="http://www.w3.org/2000/svg">
<g id="#07 Icon/Quote Large">
<path id="Vector" d="M9.83529 4.74845L9.24383 3.75854C5.14911 6.75301 2.87427 10.3909 2.87427 13.3854C2.87427 16.2809 4.83063 17.642 6.49127 17.642C8.58412 17.642 10.0628 15.7117 10.0628 13.6824C10.0628 11.9748 9.06184 10.5147 7.71968 9.97021C7.33296 9.82172 6.96898 9.69799 6.96898 8.9803C6.96898 8.06464 7.58319 6.70352 9.83529 4.74845ZM18.8664 4.74845L18.275 3.75854C14.2257 6.75301 11.9054 10.3909 11.9054 13.3854C11.9054 16.2809 13.9073 17.642 15.5679 17.642C17.6835 17.642 19.1849 15.7117 19.1849 13.6824C19.1849 11.9748 18.1612 10.5147 16.7736 9.97021C16.3868 9.82172 16.0456 9.69799 16.0456 8.9803C16.0456 8.06464 16.6826 6.70352 18.8664 4.74845Z" fill="#E1E8F1"/>
</g>
</svg>
