<svg width="213" height="213" viewBox="0 0 213 213" fill="none" xmlns="http://www.w3.org/2000/svg">
<g id="noun-play-654294 1" clip-path="url(#clip0_1_326)">
<path id="Vector" d="M106.5 0C83.9031 0 62.2325 8.97643 46.2545 24.9551C30.2758 40.9325 21.2994 62.6044 21.2994 85.2006C21.2994 107.797 30.2758 129.468 46.2545 145.446C62.2319 161.425 83.9038 170.401 106.5 170.401C129.096 170.401 150.768 161.425 166.746 145.446C182.724 129.469 191.701 107.797 191.701 85.2006C191.701 70.2456 187.764 55.5528 180.286 42.6006C172.808 29.6484 162.053 18.8937 149.1 11.4144C136.148 3.93685 121.455 0 106.5 0ZM133.778 87.5065L92.5348 111.318C91.7111 111.794 90.696 111.794 89.8723 111.318C89.0486 110.843 88.5411 109.963 88.5411 109.012V61.3884C88.5411 60.4375 89.0486 59.5579 89.8723 59.0825C90.696 58.6059 91.7111 58.6059 92.5348 59.0825L133.778 82.8953V82.8941C134.601 83.3695 135.109 84.2491 135.109 85.2C135.109 86.1509 134.601 87.0305 133.778 87.5059V87.5065Z" fill="white"/>
</g>
<defs>
<clipPath id="clip0_1_326">
<rect width="213" height="213" fill="white"/>
</clipPath>
</defs>
</svg>
