<svg width="203" height="45" viewBox="0 0 203 45" fill="none" xmlns="http://www.w3.org/2000/svg">
<g id="Olvera-First-Logo-BGY-1 2">
<g id="Group">
<g id="Group_2">
<path id="Vector" d="M186.719 20.7443H193.195V23.9713C191.205 25.2124 189.107 25.8152 186.936 25.8152C185.851 25.8152 185.019 25.567 184.44 25.106C183.861 24.645 183.535 24.0067 183.535 23.2621C183.535 22.5174 183.825 21.9145 184.404 21.4535C184.946 20.9571 185.706 20.7443 186.719 20.7443ZM186.14 30.5316C189.034 30.5316 191.603 29.7514 193.81 28.1911V28.8294C193.81 29.184 193.919 29.4677 194.172 29.716C194.425 29.9642 194.715 30.0706 195.113 30.0706H199.165C199.526 30.0706 199.852 29.9642 200.105 29.716C200.358 29.4677 200.467 29.184 200.467 28.794V16.028C200.467 12.9429 199.454 10.7089 197.428 9.2195C195.402 7.7656 192.725 7.02092 189.396 7.02092C181.726 7.02092 177.928 9.00673 177.928 12.9429C177.928 13.2975 178.036 13.5812 178.289 13.8294C178.543 14.0777 178.832 14.184 179.23 14.184H182.378C183.391 14.184 184.223 13.7585 184.946 12.9429C185.634 12.1273 186.864 11.7018 188.564 11.7018C190.301 11.7018 191.495 12.0209 192.182 12.6592C192.869 13.2975 193.195 14.4323 193.195 16.028H186.212C183.282 16.028 180.894 16.6663 179.013 17.872C177.168 19.1131 176.227 20.8862 176.227 23.1911C176.227 25.4961 177.168 27.3046 179.013 28.5457C180.858 29.8578 183.246 30.4961 186.14 30.5316ZM173.622 12.6947C173.984 12.6947 174.31 12.5883 174.563 12.3401C174.816 12.0918 174.925 11.8082 174.925 11.4181V8.29751C174.925 7.9429 174.816 7.62375 174.563 7.41099C174.31 7.19822 174.02 7.05638 173.622 7.05638C171.488 7.05638 169.751 7.3046 168.412 7.80106C167.074 8.29751 165.699 9.04219 164.288 10.0706V8.75851C164.288 8.4039 164.18 8.08475 163.926 7.83652C163.673 7.58829 163.384 7.48191 162.986 7.48191H158.282C157.921 7.48191 157.595 7.58829 157.378 7.83652C157.161 8.08475 157.016 8.36843 157.016 8.75851V28.8649C157.016 29.255 157.125 29.5386 157.378 29.7869C157.631 30.0351 157.921 30.1415 158.319 30.1415H163.022C163.384 30.1415 163.709 30.0351 163.926 29.7869C164.18 29.5386 164.288 29.255 164.288 28.8649V15.6379C166.025 13.6167 167.834 12.5883 169.715 12.5883L172.971 12.6947H173.622ZM140.808 11.7372C143.919 11.7372 145.547 13.3684 145.692 16.5954H135.888C136.068 13.3684 137.697 11.7372 140.808 11.7372ZM140.808 30.4961C148.478 30.4961 152.349 28.5457 152.349 24.5741C152.349 24.184 152.24 23.9003 151.987 23.6521C151.734 23.4039 151.445 23.2975 151.047 23.2975H147.899C146.886 23.2975 146.054 23.723 145.366 24.5741C144.679 25.4252 143.413 25.8152 141.532 25.8152C139.65 25.8152 138.312 25.4252 137.443 24.645C136.575 23.8649 136.105 22.6238 135.96 20.9571H151.806C152.168 20.9571 152.494 20.8507 152.747 20.6025C153 20.3542 153.109 20.0706 153.109 19.6805V18.5103C153.109 14.8223 152.023 11.9855 149.853 9.99964C147.682 8.01382 144.679 7.02092 140.808 7.02092C136.937 7.02092 133.934 8.04929 131.763 10.0706C129.592 12.0918 128.507 14.9996 128.507 18.794C128.507 22.5883 129.592 25.4606 131.763 27.4819C133.898 29.5032 136.937 30.4961 140.808 30.4961ZM99.781 8.51028C99.781 8.72304 99.8534 8.97127 99.9981 9.25496L109.079 28.2621C109.332 28.794 109.73 29.255 110.273 29.5741C110.816 29.8933 111.358 30.0706 111.937 30.0706H115.049C115.627 30.0706 116.17 29.8933 116.713 29.5741C117.255 29.255 117.653 28.794 117.907 28.2621L126.988 9.29042C127.132 9.00673 127.168 8.75851 127.168 8.54574C127.168 8.33297 127.132 8.15567 127.06 8.01382C126.915 7.65921 126.59 7.48191 126.083 7.48191H122.031C121.416 7.48191 120.873 7.65921 120.331 7.97836C119.788 8.29751 119.426 8.75851 119.209 9.29042L113.493 22.1628L107.74 9.29042C107.523 8.75851 107.125 8.29751 106.619 7.97836C106.076 7.62375 105.533 7.48191 104.918 7.48191H100.866C100.143 7.44645 99.781 7.80106 99.781 8.51028ZM89.8318 29.716C90.0851 29.9642 90.3745 30.0706 90.7363 30.0706H95.4395C95.8013 30.0706 96.1269 29.9642 96.344 29.716C96.5611 29.4677 96.7058 29.184 96.7058 28.8294V1.77269C96.7058 1.41808 96.5973 1.09893 96.344 0.850704C96.0908 0.602477 95.8013 0.496094 95.4395 0.496094H90.7363C90.3745 0.496094 90.0489 0.602477 89.8318 0.850704C89.6147 1.09893 89.47 1.38262 89.47 1.77269V28.8294C89.47 29.184 89.5786 29.5032 89.8318 29.716ZM72.8639 11.7372C74.7452 11.7372 76.12 12.3046 76.9883 13.4039C77.8566 14.5032 78.2907 16.3117 78.2907 18.7585C78.2907 21.2053 77.8566 23.0138 76.9883 24.1131C76.12 25.2124 74.7452 25.8152 72.8639 25.8152C70.9826 25.8152 69.6078 25.2479 68.7395 24.1131C67.8712 22.9784 67.437 21.2053 67.437 18.7585C67.437 16.3117 67.8712 14.5386 68.7395 13.4039C69.6078 12.3046 70.9826 11.7372 72.8639 11.7372ZM72.8639 30.4961C76.9883 30.4961 80.1359 29.5032 82.3066 27.5174C84.5135 25.5316 85.5989 22.6238 85.5989 18.7585C85.5989 14.8933 84.5135 11.9855 82.3066 9.99964C80.0997 8.01382 76.9521 7.02092 72.8639 7.02092C68.7757 7.02092 65.5919 8.01382 63.4212 9.99964C61.2505 11.9855 60.1289 14.8933 60.1289 18.7585C60.1289 22.6238 61.2143 25.5316 63.4212 27.5174C65.5919 29.5032 68.7395 30.4961 72.8639 30.4961Z" fill="white"/>
</g>
</g>
<g id="Group_3">
<g id="Group_4">
<path id="SVGID_1_" d="M41.4611 40.9929C39.6159 42.695 37.3728 44.0426 34.768 45H45.9111V34.2199C44.8619 36.9504 43.3785 39.1844 41.4611 40.9929ZM0 45H11.1793C8.57441 44.0426 6.33131 42.695 4.48619 40.9929C2.53253 39.1844 1.04919 36.9504 0 34.1844V45ZM12.8797 10.8511C10.7813 13.4752 9.76831 17.3404 9.76831 22.4823C9.76831 27.6241 10.8175 31.5248 12.8797 34.1135C14.9419 36.7021 18.3065 38.0142 22.9736 38.0142C27.6407 38.0142 30.9692 36.7021 33.0314 34.1135C35.0936 31.5248 36.1428 27.6596 36.1428 22.4823C36.1428 17.305 35.0936 13.4752 33.0314 10.8511C30.9692 8.22695 27.6045 6.95036 22.9736 6.95036C18.3427 6.95036 14.9781 8.26241 12.8797 10.8511ZM0 0V10.7447C1.04919 8.01418 2.53253 5.74468 4.45001 3.97163C6.29514 2.2695 8.53823 0.957447 11.1431 0H0ZM34.768 0C37.3728 0.957447 39.6159 2.2695 41.4611 4.00709C43.3785 5.78014 44.8619 8.04965 45.9111 10.7447V0H34.768Z" fill="white"/>
</g>
</g>
<g id="Group_5">
<path id="Vector_2" d="M200.323 35.0012H197.501H193.955C193.883 35.0012 193.811 35.0721 193.811 35.1431V35.7104C193.811 35.7814 193.883 35.8523 193.955 35.8523H196.633V42.3771C196.633 42.448 196.705 42.5189 196.777 42.5189H197.501C197.573 42.5189 197.646 42.448 197.646 42.3771V35.8523H200.323C200.395 35.8523 200.468 35.7814 200.468 35.7104V35.1431C200.468 35.0721 200.395 35.0012 200.323 35.0012ZM161.575 36.9516C161.575 36.3133 162.118 35.7104 163.384 35.7104C164.361 35.7104 165.085 36.136 165.446 36.3487C165.591 36.4197 165.627 36.3842 165.7 36.3133L165.953 35.7459C165.989 35.6395 165.953 35.5686 165.881 35.5331C165.302 35.214 164.614 34.8594 163.384 34.8594C161.503 34.8594 160.526 35.8168 160.526 37.0225C160.526 39.6821 165.085 38.5473 165.085 40.5686C165.085 41.3842 164.325 41.7388 163.239 41.7388C162.118 41.7388 161.467 41.3487 160.815 40.9941C160.707 40.9587 160.635 40.9587 160.598 41.065L160.345 41.597C160.309 41.7033 160.345 41.7388 160.418 41.8097C161.141 42.2353 161.973 42.6253 163.167 42.6253C164.759 42.6253 166.17 41.9516 166.17 40.4622C166.17 37.7672 161.575 38.7601 161.575 36.9516ZM127.458 38.8665V35.8877H129.231C130.787 35.8877 131.33 36.526 131.33 37.3771C131.33 38.2282 130.787 38.8665 129.231 38.8665H127.458ZM130.534 39.6111C131.8 39.292 132.415 38.4409 132.415 37.3771C132.415 36.0296 131.438 35.0367 129.448 35.0367H127.314H126.59C126.518 35.0367 126.445 35.1076 126.445 35.1785V42.4126C126.445 42.4835 126.518 42.5544 126.59 42.5544H127.314C127.386 42.5544 127.458 42.4835 127.458 42.4126V39.7175H129.412H129.448L131.293 42.448C131.33 42.4835 131.366 42.5189 131.402 42.5189H132.126C132.306 42.5189 132.415 42.3771 132.306 42.1998L130.534 39.6111ZM97.1406 35.1431V42.3771C97.1406 42.448 97.2129 42.5189 97.2853 42.5189H98.0088C98.0812 42.5189 98.1536 42.448 98.1536 42.3771V35.1431C98.1536 35.0721 98.0812 35.0012 98.0088 35.0012H97.2853C97.2129 35.0012 97.1406 35.0721 97.1406 35.1431ZM68.921 35.0012H64.3624H63.6389C63.5665 35.0012 63.4941 35.0721 63.4941 35.1431V42.3771C63.4941 42.448 63.5665 42.5189 63.6389 42.5189H64.3624C64.4348 42.5189 64.5072 42.448 64.5072 42.3771V39.4693H68.6677C68.7763 39.4693 68.8124 39.3984 68.8124 39.3275V38.7601C68.8124 38.6537 68.7401 38.6182 68.6677 38.6182H64.5072V35.8877H68.921C69.0295 35.8877 69.0657 35.8168 69.0657 35.7459V35.1785C69.1019 35.0721 69.0295 35.0012 68.921 35.0012Z" fill="white"/>
</g>
</g>
</svg>
